PathFileType	4	(X/Y/Z)	C:/Users/opensim2020/Desktop/walking_exp_matlab/subject01_walking13_straight_02.trc	
DataRate	CameraRate	NumFrames	NumMarkers	Units	OrigDataRate	OrigDataStartFrame	OrigNumFrames	
100.00	100.00	8	42	mm	100.00	1089	172	
Frame#	Time	LFHD			RFHD			LBHD			RBHD			C7			T10			CLAV			STRN			RBAK			LSHO			LUPA			LELB			LFRM			LWRA			LWRB			LFIN			RSHO			RUPA			RELB			RFRM			RWRA			RWRB			RFIN			LASI			RASI			LPSI			RPSI			LTHI			LKNE			LTIB			LANK			LHEE			LTOE			RTHI			RKNE			RTIB			RANK			RHEE			RTOE			*39			*40			*41			
		X1	Y1	Z1	X2	Y2	Z2	X3	Y3	Z3	X4	Y4	Z4	X5	Y5	Z5	X6	Y6	Z6	X7	Y7	Z7	X8	Y8	Z8	X9	Y9	Z9	X10	Y10	Z10	X11	Y11	Z11	X12	Y12	Z12	X13	Y13	Z13	X14	Y14	Z14	X15	Y15	Z15	X16	Y16	Z16	X17	Y17	Z17	X18	Y18	Z18	X19	Y19	Z19	X20	Y20	Z20	X21	Y21	Z21	X22	Y22	Z22	X23	Y23	Z23	X24	Y24	Z24	X25	Y25	Z25	X26	Y26	Z26	X27	Y27	Z27	X28	Y28	Z28	X29	Y29	Z29	X30	Y30	Z30	X31	Y31	Z31	X32	Y32	Z32	X33	Y33	Z33	X34	Y34	Z34	X35	Y35	Z35	X36	Y36	Z36	X37	Y37	Z37	X38	Y38	Z38	X39	Y39	Z39	X40	Y40	Z40	X41	Y41	Z41	X42	Y42	Z42	

1	0.000	1520.68298	1248.55676	1656.96106	1410.78870	1226.87891	1670.68250	1499.46350	1359.49768	1604.89868	1382.78101	1340.41089	1618.19580	1443.98621	1389.12378	1422.93811	1412.12769	1430.68945	1132.11780	1445.82605	1247.41479	1351.09949	1441.94727	1206.96387	1196.20984	1351.01636	1446.12244	1234.96069	1604.85193	1316.50842	1370.93091	1674.82446	1385.59741	1193.75208	1665.72327	1430.91321	1048.51697	1682.14758	1407.63831	933.92273	1658.59412	1341.31445	811.54108	1677.26282	1398.31274	812.51068	1684.84290	1365.23767	735.12225	1293.48669	1304.89526	1391.88928	1178.44617	1364.73108	1201.49463	1163.62378	1358.69275	1073.38416	1152.67603	1280.16870	973.07031	1202.34668	1165.26978	908.46057	1155.97180	1192.38257	887.69482	1167.89258	1120.35608	848.04700	1520.67371	1254.93079	931.50488	1304.75330	1256.87305	918.76782	1467.53625	1443.06458	938.74890	1322.63513	1439.76038	933.99841	1593.92029	1219.51660	619.56494	1584.99597	1199.88318	484.17697	1602.86011	1238.85291	298.03485	1559.81104	1252.37036	77.12471	1503.69653	1291.25134	45.63499	1578.40881	1104.96570	39.80065	1249.48730	1316.33472	578.39526	1268.86475	1323.90430	420.72833	1259.88916	1479.15344	337.47137	1298.55359	1646.89026	216.26466	1345.59607	1689.84631	251.11572	1335.51892	1656.84705	71.48185	1434.21216	1242.76294	1701.58533	-3102.00781	1972.96716	1023.91547	-3140.65381	2012.51782	1021.97052 
2	0.010	1524.78955	1236.73047	1657.43604	1414.88696	1215.05591	1671.82080	1503.45581	1347.57251	1605.21973	1386.70349	1328.69287	1619.22546	1447.17297	1376.88428	1424.02393	1415.12183	1419.31177	1133.26428	1448.02344	1235.49731	1351.81506	1443.51270	1195.49963	1196.74988	1353.57275	1434.95911	1236.64294	1607.53931	1303.50684	1371.34338	1678.15979	1369.42029	1193.39941	1670.64404	1413.63184	1047.78101	1687.70837	1388.28271	933.87469	1664.05359	1320.15564	812.21783	1683.40393	1376.90759	812.42236	1691.30518	1342.47058	735.84076	1296.03467	1293.16858	1392.90698	1180.95898	1354.86694	1203.01282	1166.48621	1350.30176	1074.85632	1154.05151	1273.61499	973.09570	1202.50330	1159.53796	906.19275	1156.27539	1187.49902	885.97003	1167.12720	1116.31702	844.78479	1523.34021	1243.96399	932.72168	1306.93079	1247.16309	919.41083	1469.86975	1432.19922	939.26581	1324.96509	1429.18530	932.98578	1595.53259	1213.24561	619.05206	1586.33984	1194.86853	483.51443	1602.74829	1236.63708	298.05020	1559.65186	1252.31616	77.32442	1503.35217	1291.12378	45.31880	1578.33801	1104.89050	39.65568	1252.04089	1296.49243	578.58362	1271.82922	1299.27576	420.78708	1262.64294	1454.96130	339.43149	1303.22131	1625.75720	223.67972	1353.45068	1666.36523	258.47504	1334.11145	1639.40869	78.34091	1438.74060	1231.28088	1702.58655	-3101.96191	1973.07483	1023.52295	-3140.83789	2012.42334	1022.06549 
3	0.020	1528.49670	1224.66248	1657.93079	1418.59705	1203.50342	1673.00122	1507.07312	1335.52222	1605.77014	1390.33264	1316.82324	1620.54236	1450.25940	1364.81653	1425.18152	1417.92920	1408.11792	1134.56946	1450.13806	1223.68933	1352.75134	1445.05090	1183.97034	1197.50012	1356.26477	1423.80908	1238.28174	1609.95569	1290.68469	1371.93420	1681.50159	1353.40161	1193.42737	1675.37927	1396.37585	1047.26270	1692.78613	1368.71887	933.84857	1669.72754	1298.48792	813.61664	1690.13855	1355.33569	813.26202	1697.98694	1319.13269	737.16711	1298.81909	1282.06396	1394.18567	1183.19727	1344.73413	1204.79370	1169.14978	1342.07556	1076.54443	1155.45471	1267.45154	973.21252	1202.27283	1154.11780	903.93799	1156.34570	1183.05042	884.36328	1166.43420	1112.56677	841.48602	1525.63953	1233.09961	933.62067	1308.67517	1235.38098	921.13696	1472.24805	1421.43970	939.90863	1327.42908	1418.71851	932.38074	1597.39099	1206.71313	618.87122	1587.48267	1190.23499	483.06488	1602.34814	1234.68958	297.69678	1559.53186	1252.26416	77.30231	1503.28796	1291.25537	45.37350	1578.06726	1104.93933	39.56563	1255.10754	1276.47839	579.70526	1274.72729	1274.79016	422.02167	1265.80688	1430.35583	341.55948	1308.56262	1604.04102	230.51833	1361.71948	1643.48303	263.90225	1333.11951	1618.33240	84.58202	1442.93909	1219.35840	1703.75696	-3101.92285	1973.11121	1023.39233	-3140.66284	2012.46899	1021.97485 
4	0.030	1531.99805	1212.44116	1658.54126	1422.10718	1191.26196	1674.42065	1510.57385	1323.34094	1606.60254	1393.88855	1305.00195	1622.03418	1453.15125	1352.89294	1426.35498	1420.49280	1397.12634	1136.02795	1452.04053	1211.92993	1353.72351	1446.45581	1172.56360	1198.26160	1359.16406	1412.64856	1239.81641	1612.25122	1278.00537	1372.70251	1684.97742	1337.70117	1193.85449	1679.92810	1379.16638	1047.23669	1698.21313	1349.02100	934.49677	1675.37231	1276.36499	815.50769	1695.98169	1332.96301	813.99292	1704.76208	1295.09729	739.10071	1301.20459	1270.67578	1395.49524	1185.25342	1334.58032	1206.75146	1171.56519	1333.90918	1078.27173	1156.68921	1261.53101	973.39697	1201.66455	1148.87622	901.63885	1156.23474	1179.07239	882.70197	1165.57068	1109.34314	838.18445	1527.64941	1222.60645	934.29260	1310.50415	1224.69519	923.07013	1474.64343	1410.66919	940.77112	1329.90942	1408.29187	932.35846	1598.66223	1200.13342	618.72443	1588.48035	1185.44128	482.58908	1602.35339	1232.69897	297.60443	1559.48242	1252.33142	77.46519	1503.16296	1291.33923	45.38396	1578.03918	1105.06982	39.57400	1258.16333	1256.79614	581.36365	1278.05164	1250.35791	424.07025	1268.68359	1406.11096	344.21112	1313.99939	1581.31885	236.14276	1368.64905	1621.30823	267.86652	1333.19934	1593.15674	89.62025	1446.62659	1207.21228	1704.85596	-3101.82129	1973.12378	1023.34131	-3140.67700	2012.48901	1022.08685 
5	0.040	1535.06885	1200.04248	1659.20459	1425.30872	1179.17395	1675.39709	1513.71191	1311.10278	1607.62537	1397.07019	1293.04102	1623.59741	1455.73999	1341.14294	1427.57422	1422.99658	1386.18115	1137.49915	1453.90173	1200.20569	1354.79529	1447.88989	1161.23706	1199.16577	1362.16028	1401.44775	1241.22144	1614.30713	1265.42688	1373.63147	1687.96472	1322.38269	1194.40515	1684.57166	1362.11902	1047.00183	1703.17371	1329.22009	935.24756	1680.96118	1253.84998	817.98083	1701.87683	1310.27380	815.29968	1711.54700	1270.47498	741.66150	1303.44653	1259.65356	1396.88403	1187.03027	1324.49426	1208.73816	1173.69910	1325.80151	1080.07410	1157.47363	1255.96191	973.64923	1201.26416	1144.13904	899.48383	1156.11926	1175.19116	881.31512	1164.82104	1106.48547	834.97559	1529.79736	1211.58801	935.43640	1312.02563	1214.61255	924.73090	1477.02087	1399.87207	941.86926	1332.45715	1397.79663	933.20563	1600.01587	1193.40320	618.16003	1589.56641	1180.41748	482.02298	1602.69641	1230.49646	297.45105	1559.34583	1252.29004	77.48082	1503.20068	1291.63672	45.54084	1577.96606	1105.17712	39.62471	1261.22339	1237.09143	583.70514	1280.76843	1226.14978	426.79749	1272.64661	1381.77661	346.99701	1318.70422	1557.53015	240.41113	1374.24646	1599.68335	270.42444	1334.47717	1564.65344	93.91574	1450.08191	1194.89978	1706.03589	-3101.96313	1973.14746	1023.35992	-3140.70215	2012.56311	1022.09155 
6	0.050	1537.85229	1187.50305	1659.88928	1428.12366	1166.88354	1676.46790	1516.56494	1298.78259	1608.74170	1400.00024	1280.96912	1625.12988	1458.17468	1329.39380	1428.83960	1425.45764	1375.29065	1139.00916	1455.55872	1188.58264	1355.76941	1449.29028	1149.93347	1200.13049	1365.23853	1390.29346	1242.48718	1616.23010	1252.96790	1374.67419	1691.03906	1307.45349	1195.27722	1689.02246	1345.09473	1047.12512	1708.29883	1309.18970	936.36682	1686.41223	1230.95203	820.96466	1707.44165	1287.17236	816.90082	1718.29590	1245.36816	744.89795	1305.46448	1248.37317	1398.06921	1188.81860	1314.54248	1210.67603	1175.50671	1317.68152	1082.03467	1158.22363	1250.48279	974.09222	1200.72205	1139.70325	897.32001	1156.16064	1171.69946	879.99139	1164.04883	1104.63379	831.50897	1531.74060	1200.93152	936.31860	1313.70349	1203.89417	926.76440	1479.30530	1389.01904	943.04236	1334.90979	1387.09680	934.62134	1601.38428	1186.43677	617.45679	1590.76575	1175.19556	481.34433	1603.49609	1227.98267	297.30869	1559.40369	1252.26672	77.63888	1503.05273	1291.65051	45.71298	1578.00476	1105.28979	39.63998	1264.04089	1217.56555	586.31976	1283.75085	1202.39807	430.19009	1276.61755	1357.93079	349.99072	1323.66748	1533.44055	243.90187	1378.67700	1577.90698	271.52679	1336.69287	1534.18140	96.97749	1453.08423	1182.45093	1707.02478	-3101.87280	1973.17786	1023.52777	-3140.64038	2012.52954	1022.12573 
7	0.060	1540.28308	1174.88464	1660.63013	1430.62610	1154.50342	1677.37390	1519.13110	1286.38232	1610.03125	1402.59937	1268.83752	1626.65295	1460.45496	1317.66516	1430.19397	1427.77124	1364.45068	1140.46094	1457.23303	1177.01978	1356.83948	1450.79919	1138.77075	1201.13220	1368.17883	1379.10425	1243.73267	1618.00952	1240.66443	1375.75562	1693.78943	1292.85864	1196.21545	1693.38013	1328.14075	1047.38232	1713.17212	1289.10962	937.68225	1691.72046	1207.67822	824.47681	1712.95581	1263.70471	818.96185	1725.01501	1219.82263	748.84332	1307.41394	1237.40796	1399.40137	1190.49280	1304.81543	1212.60632	1177.01660	1309.39478	1084.02832	1158.77087	1244.92871	974.73169	1200.06726	1135.58142	895.18146	1155.73035	1168.29944	878.50525	1163.14063	1101.88513	828.64764	1533.68091	1190.29919	937.08331	1315.61877	1193.43750	928.88574	1481.45325	1378.30371	944.32092	1337.19312	1376.18848	936.47760	1602.61523	1179.71838	616.32056	1591.67053	1169.94702	480.25311	1604.59766	1225.24182	297.08170	1559.45227	1252.25769	77.70037	1502.98828	1291.62756	45.84685	1578.22644	1105.41443	39.68050	1266.42444	1198.29944	589.39178	1286.86011	1178.98596	433.87970	1281.10742	1334.04956	352.91959	1327.79785	1508.54285	245.60037	1382.24744	1555.50012	271.21521	1339.82153	1500.97412	98.96272	1455.57117	1169.84729	1707.98999	-3101.94116	1973.06396	1023.52448	-3140.59253	2012.51025	1022.12622 
8	0.070	1542.40540	1162.14490	1661.34888	1432.68481	1141.97815	1678.25354	1521.42432	1273.94702	1611.39099	1404.86206	1256.58704	1628.12659	1462.53735	1305.98450	1431.47058	1430.15454	1353.50232	1141.83020	1458.95105	1165.50464	1357.96497	1452.28137	1127.53406	1202.04968	1370.79224	1367.98645	1244.96570	1619.71729	1228.55151	1376.93604	1696.52368	1278.64148	1197.42749	1697.64026	1311.31824	1047.81323	1717.92358	1268.96143	939.32019	1697.08350	1184.11792	828.72131	1718.31799	1239.88831	821.47882	1731.48462	1193.85693	753.39655	1309.34436	1226.18994	1400.39246	1192.26331	1295.05774	1214.33972	1178.46021	1300.85217	1086.04053	1159.40198	1239.38879	975.55231	1199.65466	1131.79419	893.02063	1155.44800	1165.19641	877.34717	1162.13000	1100.00610	825.58197	1535.86414	1179.63037	937.94055	1317.66589	1182.79407	930.92212	1483.68481	1368.21033	945.84570	1339.20984	1365.00171	938.52527	1604.46399	1174.07080	615.25940	1592.63586	1164.97241	479.21906	1605.69263	1222.21448	296.61441	1559.41211	1251.94531	77.71845	1503.00916	1291.54846	46.10725	1578.43445	1105.27319	39.65725	1268.66907	1179.31201	592.67084	1289.60852	1156.09802	438.02042	1285.36914	1310.36304	355.74969	1331.43372	1482.88818	245.59027	1385.14685	1532.27612	269.52332	1343.95667	1468.50073	99.95361	1457.80298	1157.08704	1708.86340	-3102.01587	1972.97986	1023.82495	-3140.69043	2012.56396	1022.12439 
